<?xml version="1.0" standalone="no"?>
<!DOCTYPE svg PUBLIC "-//W3C//DTD SVG 20010904//EN"
 "http://www.w3.org/TR/2001/REC-SVG-20010904/DTD/svg10.dtd">
<svg version="1.0" xmlns="http://www.w3.org/2000/svg"
 width="260.000000pt" height="260.000000pt" viewBox="0 0 260.000000 260.000000"
 preserveAspectRatio="xMidYMid meet">
<metadata>
Created by potrace 1.11, written by Peter Selinger 2001-2013
</metadata>
<g transform="translate(0.000000,260.000000) scale(0.100000,-0.100000)"
fill="#000000" stroke="none">
<path d="M0 1300 l0 -1300 1300 0 1300 0 0 1300 0 1300 -1300 0 -1300 0 0
-1300z m770 233 l0 -48 23 27 c76 91 234 93 293 4 l16 -26 45 40 c50 44 89 55
164 48 40 -4 57 -12 85 -39 19 -18 39 -49 44 -69 5 -19 10 -113 10 -208 l0
-174 40 -15 c22 -9 40 -22 40 -30 0 -10 -28 -13 -130 -13 -102 0 -130 3 -130
13 0 8 18 19 41 26 l40 12 -3 189 c-3 181 -4 189 -26 213 -42 45 -127 43 -186
-4 l-26 -20 0 -174 c0 -95 3 -180 6 -189 3 -8 21 -20 40 -26 19 -6 34 -18 34
-26 0 -11 -24 -14 -125 -14 -98 0 -125 3 -125 13 0 8 18 21 41 30 l41 16 -4
173 c-4 200 -11 226 -71 245 -43 14 -101 6 -142 -21 l-25 -16 0 -194 0 -194
35 -12 c19 -6 35 -18 35 -26 0 -11 -24 -14 -125 -14 -105 0 -125 2 -125 15 0
9 12 18 30 21 16 4 34 12 40 19 7 8 9 82 8 206 l-3 194 -37 18 c-21 10 -38 24
-38 31 0 10 73 30 163 45 4 0 7 -20 7 -46z m1163 36 c36 -10 37 -11 37 -57 0
-26 3 -57 6 -69 5 -20 2 -23 -19 -23 -20 0 -28 7 -37 36 -15 45 -61 74 -117
74 -84 0 -129 -48 -103 -110 15 -37 38 -49 151 -84 70 -21 93 -33 118 -61 72
-82 17 -213 -102 -246 -48 -13 -186 -7 -234 11 -33 12 -33 12 -33 82 0 65 1
69 22 66 14 -2 25 -14 33 -38 16 -51 80 -83 158 -77 65 4 93 23 103 73 10 50
-25 80 -131 110 -134 39 -175 77 -175 165 0 94 87 159 214 159 39 0 88 -5 109
-11z"/>
</g>
</svg>
